<svg xmlns="http://www.w3.org/2000/svg" width="380" height="395" viewBox="0 0 380 395"><title>Group</title><desc>Created with Sketch.</desc><g fill="#3F4348" fill-rule="evenodd"><path d="M33.992 294.1c-1.388.1-2.492.3-3.392.5-.886.1-2.5.3-4.9.4-1.658 3.4-3.5 7.3-5.5 11.7-2.01 4.4-3.9 8.8-5.8 13.2-1.788 4.3-3.3 8.4-4.5 12.1-1.187 3.8-1.8 6.9-1.8 9.3.017 2.6 1.1 4 3.2 4 2.163 0 4.8-1.3 8.1-3.9 3.162-2.6 6-6.8 8.5-12.6l.424-.2c.378 0 .776.2 1.176.6l.333.4c0-.8-.233-.1-.633 2-.47 2-1.4 4.5-2.8 7.4-1.352 2.9-3.3 5.6-5.9 8.1-2.596 2.6-6.1 3.8-10.5 3.8-1.007 0-2.1-.1-3.3-.5-1.2-.3-2.3-.9-3.2-1.8-.955-1-1.7-2.2-2.4-3.7-.6-1.5-.9-3.5-.9-6.1-.017-3 .4-6.4 1.2-10.3.827-3.8 1.8-7.7 3-11.7 1.226-3.9 2.5-7.9 4-11.8 1.446-3.9 2.9-7.5 4.3-10.7-4.082-.8-6.8-1.9-8.4-3.3-1.473-1.5-2.2-2.7-2.2-3.7-.026-.5.1-1 .4-1.5 2.72 1.7 6.4 2.6 11.1 2.6 1.38 0 2.3-.9 2.9-2.6.586-1.8 1-3 1.2-3.8l1.37-4c.373-1.1.73-2.2 1.03-3.4.323-1.1.5-2 .5-2.8.23.1.9.4 2.1.8 1.09.3 2.3.9 3.5 1.7 1.308.7 2.4 1.7 3.4 2.8 1.055 1.1 1.6 2.4 1.6 4-.042.6-.1 1.4-.2 2.4-.155 1-.5 2-1.2 3 8.592-1.6 15.6-2.7 21-3.3 5.41-.5 10.5-.8 15.3-.8 4.147 0 7.5.1 10.1.4 2.576.4 4.4.8 5.4 1.3 1.24.6 2.4 1.4 3.4 2.4.855.9 1.6 2 2.3 3.1.735 1.2 1.1 2.7 1.1 4.5-.02.5-.1 1.5-.4 2.9-.25 1.5-.6 2.2-.9 2.2-.423 0-1.2-.3-2.4-.9-1.206-.5-3.2-1.2-6-1.9-2.88-.8-6.7-1.5-11.6-2-4.817-.6-11.1-.9-18.8-.9-4.24 0-9 .2-14.3.6M71.003 328.8c.626.4.897.7.897.8.046.2-.4 1.5-1.2 3.8-.804 2.2-2 4.7-3.6 7.2-1.542 2.6-3.4 5-5.6 7.1-2.237 2.2-4.7 3.2-7.5 3.2-2.388 0-4.6-1.1-6.7-3.5-2.076-2.3-3.1-5.7-3.1-10.3-.014-3.6.5-7.4 1.6-11.3 1.057-3.9 2.3-7.5 3.7-10.9-1.415.2-2.8.4-4.1.4-1.312.1-2.7.2-4.1.3h-1.366c-.445 0-.934-.1-1.634-.2-1.74 2.9-3.3 5.6-4.8 8.1-1.437 2.6-2.7 4.7-3.7 6.5-1.23 2.1-2.4 4.1-3.4 5.8-.093 0-.2 0-.4-.2-.23-.1-.4-.2-.5-.2l-.397-.3c.13-.4.497-1.4 1.097-2.9.673-1.5 1.4-3.3 2.2-5.5.834-2.1 1.7-4.4 2.7-6.7.905-2.4 1.8-4.6 2.5-6.7-2.135-1.3-3.6-3-4.3-5-.792-1.9-1.2-3.6-1.2-5 .03-1.3.2-2.4.4-3.1.263-.7.9-1 1.9-1 .498 0 1.3 0 2.4.2 1.026.1 2.1.3 3.3.5 1.095.3 2.2.6 3.2.9.984.3 1.6.6 1.9.8-.41.9-.7 1.5-.8 1.7-.116.1-.3.4-.6.6.037.3.3.4.9.6.555.1 1.2.2 2.1.3.783.2 1.7.3 2.7.3 1.01.1 2 .1 2.8.1h5.325c-.13.3.075 0 .475-.7.438-.8 1-1.7 1.6-2.9.636-1.1 1.2-2.3 1.8-3.6.57-1.4 1-2.6 1.2-3.7.146 0 .7.3 1.5.8.917.6 1.9 1.3 3 2.2 1.033.9 2 1.9 2.9 2.9.865 1.1 1.3 2.2 1.3 3.3.012.5 0 1-.1 1.4-.048.5-.1 1-.3 1.6-.978 2.1-2.3 4.5-3.8 7.2-1.61 2.8-3.2 5.7-4.7 8.7-1.478 3-2.8 6.1-3.8 9.2-1.103 3.1-1.6 6-1.6 8.8-.04 1.3.1 2.5.4 3.4.352 1 1 1.5 2 1.5 1.775 0 4-1.3 6.6-3.9 2.668-2.6 5.2-6.8 7.8-12.6l.35-.2c.244 0 .45.1.75.2M80.635 318.6c-1.263 1.4-2.435 3.2-3.435 5.5 2.673.6 5.1.6 7.2-.1 2.146-.7 3.9-1.7 5.3-3 1.38-1.3 2.4-2.7 3-4.3.653-1.5.8-2.6.6-3.4-.018-.3-1.5-.5-4.4-.5-.968 0-2.3.5-3.9 1.6-1.67 1.1-3.1 2.5-4.4 4.2m33.077 10c.51.2.723.4.723.8.037.1-.5 1.3-1.5 3.7-.986 2.3-2.7 4.8-5.1 7.5-2.372 2.7-5.5 5.2-9.4 7.5-3.924 2.3-8.7 3.4-14.4 3.4-3.365 0-6.2-.8-8.4-2.5-2.178-1.6-3.9-3.5-5.1-5.8-1.17-2.3-2-4.6-2.5-7-.526-2.4-.8-4.3-.8-5.9.024-3.7.8-7.4 2.2-11 1.44-3.6 3.3-6.8 5.5-9.6 2.174-2.9 4.7-5.1 7.4-6.8 2.794-1.7 5.5-2.6 8.1-2.6 3.702 0 6.5.5 8.5 1.4 1.905 1 3.4 2.1 4.3 3.3.942 1.3 1.5 2.6 1.7 3.8.183 1.3.3 2.2.3 2.8-.022 3.6-.7 6.5-2.1 8.7-1.38 2.3-3.1 4.1-5.2 5.4-2.067 1.3-4.3 2.3-6.7 2.8-2.388.6-4.6.9-6.6.9-2.14 0-3.9-.2-5.3-.7-1.38-.4-2.5-.9-3.2-1.6-.636 2.3-.9 4.2-.9 5.9-.042 1.5.1 3 .5 4.4.394 1.5 1.1 2.8 2 3.9.945 1.1 2.2 2 3.8 2.7 1.554.7 3.5 1.1 5.9 1.1 4.058 0 7.6-.8 10.8-2.4 3.14-1.6 5.8-3.4 7.9-5.4 2.166-2 3.8-3.8 4.8-5.5 1.11-1.7 1.6-2.7 1.6-3l.044-.2h.19l.382-.2c.12 0 .184.1.284.1.06.1.1.1.3.1M121.984 318.6c-1.262 1.4-2.384 3.2-3.384 5.5 2.63.6 5 .6 7.2-.1 2.098-.7 3.9-1.7 5.3-3 1.34-1.3 2.3-2.7 3-4.3.605-1.5.8-2.6.5-3.4.042-.3-1.4-.5-4.3-.5-1.008 0-2.3.5-4 1.6-1.61 1.1-3.1 2.5-4.3 4.2m33.035 10c.503.2.765.4.765.8-.012.1-.5 1.3-1.5 3.7-1.026 2.3-2.7 4.8-5.1 7.5-2.412 2.7-5.6 5.2-9.5 7.5-3.864 2.3-8.6 3.4-14.3 3.4-3.416 0-6.2-.8-8.4-2.5-2.226-1.6-3.9-3.5-5.1-5.8-1.214-2.3-2.1-4.6-2.6-7-.466-2.4-.7-4.3-.7-5.9-.025-3.7.7-7.4 2.1-11 1.5-3.6 3.3-6.8 5.5-9.6 2.232-2.9 4.7-5.1 7.5-6.8 2.754-1.7 5.5-2.6 8.1-2.6 3.654 0 6.5.5 8.4 1.4 1.966 1 3.4 2.1 4.4 3.3.9 1.3 1.5 2.6 1.7 3.8.143 1.3.2 2.2.2 2.8.038 3.6-.7 6.5-2 8.7-1.422 2.3-3.2 4.1-5.2 5.4-2.107 1.3-4.3 2.3-6.7 2.8-2.428.6-4.6.9-6.6.9-2.19 0-3.9-.2-5.3-.7-1.42-.4-2.5-.9-3.2-1.6-.678 2.3-1 4.2-1 5.9.013 1.5.2 3 .6 4.4.354 1.5 1 2.8 2 3.9.905 1.1 2.2 2 3.7 2.7 1.606.7 3.6 1.1 6 1.1 4.018 0 7.6-.8 10.8-2.4 3.092-1.6 5.7-3.4 7.9-5.4 2.126-2 3.7-3.8 4.8-5.5 1.07-1.7 1.6-2.7 1.6-3l.004-.2h.19l.373-.2c.128 0 .233.1.333.1.02.1.1.1.2.1M186.298 314.1c-1.51 2.4-3.198 5.2-5.198 8.3-1.948 3.2-3.8 6.3-5.6 9.5-1.735 3.1-3.3 6-4.8 8.6-1.43 2.7-2.3 4.7-2.7 6.1-.016-.1-.1 0-.4.5-.25.4-.6.9-1.1 1.5-.54.5-1.1 1.1-1.8 1.6-.72.5-1.5.7-2.4.7-.49 0-1.2 0-2-.1-.79 0-1.6-.4-2.3-.9-.782-.6-1.4-1.5-2-2.7-.58-1.2-.9-3-.9-5.3.036-2.8.4-6.1 1.2-9.8.726-3.7 1.7-7.5 2.8-11.6 1.138-4 2.4-8 3.9-12.1 1.42-4 2.8-7.8 4.1-11.3 1.35-3.5 2.5-6.6 3.6-9.2 1.086-2.7 1.9-4.6 2.4-5.9l1.298-4c.38-1.1.702-2.2 1.002-3.4.355-1.1.5-2 .5-2.8.263.1 1 .4 2.1.9 1.124.4 2.3 1 3.6 1.7 1.232.8 2.4 1.7 3.4 2.8.983 1.1 1.5 2.3 1.5 3.9-.012 1.6-.3 3.1-1 4.5-.59 1.2-1.6 3.2-2.9 5.8-1.303 2.7-2.8 5.7-4.4 9.1-1.66 3.4-3.3 7-5 10.9-1.725 3.8-3.3 7.6-4.8 11.3-1.392 3.7-2.6 7.2-3.5 10.4-.98 3.2-1.5 5.9-1.5 8 .174 0 .2-.1.2-.2 3.812-5.9 7.4-11.2 10.8-15.9 3.4-4.8 6.4-8.8 8.9-12.2 2.998-4 5.8-7.6 8.3-10.6.616-1 1.2-1.9 1.8-2.8.544-.9 1.2-2.6 2-5.1.085 0 .6.3 1.5.8.854.6 1.8 1.3 2.9 2.2 1.07.9 2 1.9 2.9 3 .91 1.2 1.4 2.2 1.4 3.2l-.047 1.6c0 .6-.153 1.1-.353 1.4-1.04 2.1-2.3 4.5-3.9 7.2-1.576 2.8-3.1 5.7-4.6 8.7-1.536 3-2.8 6.1-3.9 9.2-1.063 3.1-1.6 6-1.6 8.8 0 1.3.2 2.5.5 3.4.278 1 1 1.5 2.1 1.5 1.68 0 3.8-1.3 6.6-3.9 2.66-2.6 5.2-6.8 7.6-12.6l.387-.2c.5 0 .913.2 1.313.6l.38.4c0 .2-.38 1.5-1.18 3.8-.867 2.2-2 4.7-3.5 7.2-1.547 2.6-3.4 5-5.6 7.1-2.215 2.2-4.7 3.2-7.5 3.2-2.486 0-4.8-1.1-6.9-3.5-2.037-2.3-3.1-5.7-3.1-10.3.023-3.6.6-7.5 1.7-11.6 1.156-4.1 2.4-7.9 3.8-11.4M229.923 337.5c1.13-1.5 2.177-3.3 2.977-5.3.923-2 1.6-4.1 2-6.2.464-2.1.6-4.3.4-6.4-.186-2.2-.7-4.2-1.6-6.1-1.01 0-2 .5-2.8 1.5-.912 1.1-1.7 2.3-2.4 3.7-.69 1.5-1.3 3-1.7 4.7-.433 1.7-.7 3.4-.7 4.9.04 1.3.3 3.1.8 5.2.503 2.2 1.5 3.5 3 4m-11.497 8.7c.63 0 1.697-.3 3.297-.8 1.585-.6 2.9-1.7 4.1-3.2-3.307-2-5.5-4.7-6.5-8.3-1.12-3.5-1.7-7-1.7-10.4.05-.7.1-1.5.1-2.3.107-.8.2-1.6.3-2.4-2.118 2.3-3.9 4.9-5.4 7.8-1.408 2.9-2.1 6-2.1 9.4-.035 3.4.7 5.9 2 7.5 1.433 1.5 3.4 2.5 5.9 2.7m14.735-44.7c3.777.1 6.565 1.7 8.365 4.9 1.865 3.1 2.8 6.7 2.8 10.7-.022 4.6-1 8.9-3 13-1.904 4.1-3.9 7.4-5.9 9.9.627.1 1.2.2 1.7.3h1.5c2.904 0 5.4-.4 7.5-1.4 2.043-.9 3.3-1.4 3.7-1.4h-.237c.123.1.337.3.537.4.533.5.8 1 .8 1.5l-.206-.2c-.25 0-.694.3-1.394 1-.717.6-1.7 1.3-2.9 2.1-1.31.8-2.8 1.6-4.5 2.2-1.684.6-3.6.9-5.7.9-.93 0-1.8 0-2.8-.1-.926-.2-1.9-.4-2.9-.8-.64.9-2.1 2.2-4.5 3.9-2.28 1.7-5 2.5-8.2 2.5-2.608 0-4.8-.5-6.7-1.7-1.796-1.1-3.3-2.6-4.4-4.3-1.138-1.8-2-3.7-2.6-5.7-.524-2-.8-4-.8-5.8-.01-5 .8-9.3 2.5-13.2 1.58-3.8 3.4-7.1 5.5-9.9 2.098-2.7 4.1-4.9 6.2-6.5 1.976-1.6 3.4-2.5 4.1-2.7.263 0 .6.1 1 .4.493.4 1.2 1.3 2.2 3 1.16-.7 2.3-1.4 3.5-2.1 1.213-.8 2.8-1.1 4.8-.9M299.99 328.8c.493.4.71.7.71.8.042.2-.4 1.5-1.2 3.7-.808 2.2-2 4.6-3.5 7.2-1.49 2.7-3.3 5.1-5.6 7.2-2.158 2.2-4.6 3.2-7.4 3.2-2.023 0-4-.8-6-2.5-1.908-1.7-3.2-4.8-3.8-9.2-.784 1.3-1.7 2.6-2.8 4-1.04 1.4-2.2 2.6-3.5 3.8-1.222 1.1-2.6 2-4.1 2.8-1.53.7-3.1 1.1-4.7 1.1-2.43 0-4.7-1.1-6.8-3.5-2.18-2.3-3.2-5.7-3.2-10.3-.046-3 .4-6.2 1.2-9.5.798-3.3 1.8-6.5 2.9-9.6 1.14-3.1 2.3-5.9 3.4-8.3 1.136-2.5 2-4.4 2.6-5.8.552-1 1.4-2.5 2.5-4.5 1.136-2 1.9-3.7 2.3-4.9.1 0 .6.2 1.5.8.865.6 1.8 1.3 2.8 2.1 1.022.8 1.9 1.8 2.8 2.8.773 1.1 1.2 2.2 1.2 3.3-.017.4-.1 1.1-.2 2.2-.137 1.1-.5 1.9-1.1 2.6-1.053 2.1-2.3 4.5-3.8 7.1-1.53 2.7-3 5.4-4.4 8.2-1.35 2.9-2.5 5.7-3.5 8.6-.897 2.9-1.4 5.6-1.4 8.2.028 1.6.2 2.9.7 3.9.43 1 1.3 1.5 2.7 1.5 1.79 0 3.9-1 6.4-3 2.407-2 4.7-5.5 6.8-10.6.55-3.6 1.4-7.3 2.5-10.9 1.13-3.7 2.3-6.9 3.5-9.7 1.194-2.9 2.3-5.2 3.3-6.9 1.007-1.8 1.6-2.7 1.9-2.7.868 0 1.9.2 3.1.7 1.2.4 2.4 1 3.7 1.6 1.375.6 2.8 1.4 4.3 2.2-.85 2.1-2.1 4.5-3.7 7.2-1.525 2.8-3.1 5.7-4.6 8.8-1.49 3.1-2.8 6.2-3.9 9.3-1.18 3-1.7 6-1.7 8.7-.047 1.4.1 2.6.4 3.4.348.9 1.1 1.4 2.2 1.4 1.64 0 3.8-1.3 6.5-3.9 2.723-2.6 5.3-6.8 7.9-12.6l.33-.2c.252 0 .47.1.77.2M308.86 344.9c1.504 0 2.94-.3 4.44-.8 1.44-.5 2.8-1.2 4.1-2.1 1.213-1 2.2-2.2 3-3.5.736-1.4 1.1-2.9 1.1-4.6.007-1.5-.3-3.2-.8-5.3-.6-2-1.3-4.1-2-6.3-.78-2.2-1.5-4.3-2.2-6.4-.69-2.1-1.2-3.9-1.6-5.6-2.14 3.2-4.4 6.4-6.8 9.8-2.387 3.3-4.5 6.3-6.4 8.9 2.5-.6 4.5-.9 6.1-.9 1.595 0 2.3-.1 2.2-.2.114 0 .2.1.4.2.223.2.3.6.3 1.1.044.4-.6.7-1.9 1-1.356.2-2.8.6-4.5 1.1-1.613.5-3.1 1.1-4.4 1.9-1.337.7-2 1.9-2 3.4.007.7.3 1.6.9 2.5.516 1 1.3 1.8 2.2 2.7.97.8 2.1 1.5 3.5 2.1 1.403.7 2.8 1 4.4 1m17.71-42.5c.128.6.19 1.3.09 1.9-.057.6-.2 1.1-.3 1.3.148 3 .8 6.8 2.1 11.3 1.258 4.6 2.2 9.7 2.8 15.5.28 3.2-.2 5.9-1.4 8.3-1.183 2.4-2.8 4.4-4.9 6.1-2.067 1.6-4.4 2.9-7.1 3.7-2.615.9-5.2 1.4-7.7 1.4-2.914 0-5.4-.5-7.5-1.4-2.054-1-3.8-2.2-5.2-3.6-1.358-1.5-2.4-3.1-3.1-4.8-.678-1.7-1-3.3-1-4.8-.034-1.9.4-3.5 1.4-5 .936-1.4 2.3-2.3 4-2.5 1.183-1.9 2.4-4.1 3.8-6.6 1.41-2.6 2.8-5.1 4.3-7.7 1.425-2.6 2.8-5 4-7.4 1.29-2.4 2.4-4.4 3.4-6.1.283-.5.6-1.2.9-2.1.298-.8.6-1.7.8-2.5.286-.8.6-1.6 1-2.2.36-.6.7-.9 1.1-.9 1.395.9 2.7 1.7 4 2.6.982.8 1.9 1.6 2.8 2.6.89.9 1.5 1.9 1.7 2.9M346.06 318.6c-1.26 1.4-2.36 3.2-3.36 5.5 2.608.6 5 .6 7.1-.1 2.175-.7 3.9-1.7 5.3-3 1.413-1.3 2.4-2.7 3-4.3.68-1.5.9-2.6.6-3.4.017-.3-1.4-.5-4.3-.5-1.033 0-2.4.5-4 1.6-1.632 1.1-3.1 2.5-4.3 4.2m33.012 10c.503.2.788.4.788.8-.026.1-.5 1.3-1.5 3.7-1.052 2.3-2.7 4.8-5.1 7.5-2.435 2.7-5.6 5.2-9.5 7.5-3.89 2.3-8.7 3.4-14.3 3.4-3.44 0-6.2-.8-8.4-2.5-2.25-1.6-3.9-3.5-5.1-5.8-1.237-2.3-2.1-4.6-2.6-7-.49-2.4-.7-4.3-.7-5.9-.04-3.7.7-7.4 2.1-11 1.476-3.6 3.3-6.8 5.5-9.6 2.21-2.9 4.7-5.1 7.5-6.8 2.73-1.7 5.4-2.6 8.1-2.6 3.63 0 6.4.5 8.4 1.4 1.94 1 3.4 2.1 4.3 3.3.977 1.3 1.5 2.6 1.7 3.8.22 1.3.3 2.2.3 2.8.015 3.6-.7 6.5-2.1 8.7-1.345 2.3-3.1 4.1-5.2 5.4-2.032 1.3-4.3 2.3-6.7 2.8-2.35.6-4.6.9-6.6.9-2.113 0-3.9-.2-5.3-.7-1.345-.4-2.4-.9-3.2-1.6-.6 2.3-.9 4.2-.9 5.9-.012 1.5.2 3 .6 4.4.33 1.5 1 2.8 1.9 3.9.982 1.1 2.2 2 3.8 2.7 1.583.7 3.6 1.1 6 1.1 3.995 0 7.6-.8 10.7-2.4 3.178-1.6 5.8-3.4 8-5.4 2.1-2 3.7-3.8 4.8-5.5 1.043-1.7 1.6-2.7 1.6-3l-.02-.2h.19l.372-.1h.258c.096.1.2.1.3.1M173.8 105c0 9.4 7.6 17 17 17 9.4.1 17.1-7.4 17.2-16.8.1-9.3-7.5-16.9-17-17-9.4 0-17.1 7.5-17.2 16.8"/><path d="M249.7 147.7l-10.4-12.3-31.9 67-9.3-.1 6.3-30.6c.1-11.8-3.4-21.4-15.3-21.5-12 0-15.5 9.5-15.6 21.3l5.8 30.7-10.8-.2-29.4-67.2-10.6 12.1-13.4-11.6 74.7-91.4 73.5 92.4-13.6 11.4zM189.2 0C121.1 0 66 55.1 66 123.2c0 68 55.1 123.1 123.2 123.1 68 0 123.1-55.1 123.1-123.1C312.3 55.1 257.2 0 189.2 0zM136.9 389.3l.4.4c.2.1.4.3.6.4.3.3.7.4 1 .6.3.1.7.1 1 .1.4 0 .6 0 .9-.1.2 0 .4-.1.5-.3.1-.1.2-.2.3-.4 0-.2.1-.3.1-.5s-.1-.4-.3-.6c-.1-.1-.3-.3-.5-.4-.3-.1-.5-.2-.7-.3-.3-.1-.5-.2-.7-.2-.7-.3-1.4-.6-2-.9-.6-.3-1.1-.7-1.5-1-.4-.4-.7-.9-.9-1.3-.2-.5-.3-1-.3-1.6 0-.6.1-1.1.4-1.6.2-.5.6-.9 1-1.3.5-.3 1.1-.6 1.7-.8.6-.2 1.3-.3 2.1-.3.6 0 1.2.1 1.8.2.5.2 1 .4 1.6.7.2.1.4.2.6.4.2.1.4.2.5.4.2.1.3.2.4.3.1.2.1.3.1.3v.3c-.1 0-.1.1-.2.2l-1.5 1.6c-.1.1-.3.2-.4.2-.1 0-.1-.1-.2-.1-.1-.1-.2-.1-.3-.2l-.1-.1c-.1-.1-.2-.2-.4-.3-.2-.1-.3-.2-.5-.3l-.6-.3c-.2 0-.4-.1-.6-.1-.2 0-.4 0-.6.1-.2 0-.4.1-.5.2-.2 0-.3.1-.4.3 0 .1-.1.2-.1.4s.1.4.1.5c.1.1.3.3.5.4.1.1.4.2.6.3.3.1.6.2 1 .3.7.2 1.3.5 1.9.7.6.3 1.1.6 1.5.9.4.4.8.8 1 1.2.3.5.4 1.1.4 1.8s-.2 1.3-.5 1.9c-.2.6-.7 1.1-1.2 1.5-.5.4-1.1.7-1.8.9-.7.3-1.4.4-2.2.4-.8 0-1.5-.1-2.2-.4-.8-.3-1.4-.6-2.1-1.1-.2-.2-.5-.4-.6-.6-.2-.1-.4-.3-.5-.4v-.1h-.1c-.1-.2-.2-.3-.2-.4 0-.1.1-.2.2-.4l1.7-1.6c.2-.1.3-.1.4-.1h.1c.1.1.2.1.3.2"/><path d="M151.1 380c0-.2 0-.3.1-.4.1 0 .2-.1.3-.1h10.6c.1 0 .2.1.3.1.1.1.2.2.2.4v2.4c0 .1-.1.2-.1.3-.1.1-.2.2-.4.2h-3.4v10.6c0 .2 0 .3-.1.4-.1 0-.2.1-.3.1h-2.9c-.1 0-.2 0-.3-.1-.1-.1-.2-.2-.2-.4v-10.6h-3.4c-.1 0-.2-.1-.3-.2-.1 0-.1-.2-.1-.3V380zM172.6 388.2c0 .5.1.9.2 1.3.2.3.4.6.6.8.2.2.4.3.7.4.3.1.6.2 1 .2.3 0 .6-.1.9-.2.3-.1.5-.3.8-.5.2-.2.3-.5.5-.8.1-.4.2-.7.2-1.2V380c0-.2 0-.3.1-.3.1-.1.2-.2.3-.2h2.9c.1 0 .3.1.3.2.1.1.2.1.2.3v8.2c0 1.1-.2 2.1-.5 2.8-.4.8-.8 1.4-1.4 1.9-.6.5-1.2.8-2 1-.7.2-1.5.3-2.3.3-.9 0-1.7-.1-2.4-.3-.8-.2-1.4-.6-2-1-.6-.5-1-1.1-1.4-1.9-.3-.8-.5-1.7-.5-2.8V380c0-.2.1-.2.2-.3 0-.1.1-.2.2-.2h3c.1 0 .2.1.3.1.1.1.1.2.1.4v8.2zM191.7 383v7.5H193.4c.5-.1.9-.2 1.4-.4.4-.2.8-.5 1.1-.8.3-.3.6-.7.7-1.1.2-.4.3-.9.3-1.4 0-.6-.1-1.1-.3-1.5-.2-.5-.5-.9-.8-1.2-.4-.4-.8-.6-1.3-.8-.5-.2-1-.3-1.5-.3h-1.3zm9 3.8c0 .7-.1 1.3-.3 1.9-.2.7-.4 1.2-.7 1.8-.4.5-.7 1-1.2 1.4-.5.5-1 .8-1.5 1.1-.6.3-1.2.6-1.8.7-.7.2-1.3.3-2 .3h-4.9c-.1 0-.2 0-.3-.1-.1 0-.1-.1-.1-.3V380c0-.2 0-.3.1-.4.1 0 .2-.1.3-.1h4.9c.7 0 1.3.1 2 .3.6.1 1.2.4 1.8.7.5.3 1 .7 1.5 1.1.4.4.8.9 1.2 1.5.3.5.5 1.1.7 1.7.2.6.3 1.3.3 2zM207.2 380c0-.2.1-.3.1-.3.1-.1.2-.2.4-.2h2.8c.1 0 .2.1.4.1.1.1.1.2.1.4v13.6c0 .3-.1.4-.5.4h-2.8c-.3 0-.5-.1-.5-.4V380zM221.2 386.8c0 .5.1 1 .3 1.5.2.4.5.8.8 1.2.3.3.7.6 1.2.8.4.2.9.3 1.5.3.5 0 1-.1 1.5-.3.4-.2.8-.5 1.1-.8.4-.4.6-.8.8-1.2.2-.5.3-1 .3-1.5 0-.6-.1-1.1-.3-1.5-.2-.5-.4-.9-.8-1.3-.3-.3-.7-.6-1.1-.8-.5-.2-1-.3-1.5-.3-.6 0-1.1.1-1.5.3-.5.2-.9.5-1.2.8-.3.4-.6.8-.8 1.3-.2.4-.3.9-.3 1.5m-3.8 0c0-.7.1-1.4.3-2 .2-.6.4-1.2.8-1.8.3-.5.7-1 1.1-1.5.5-.5 1-.8 1.6-1.2.5-.3 1.1-.5 1.8-.7.6-.2 1.3-.3 2-.3s1.3.1 2 .3c.6.2 1.2.4 1.8.7.5.4 1 .7 1.5 1.2l1.2 1.5c.3.6.5 1.2.7 1.8.2.6.3 1.3.3 2s-.1 1.3-.3 2c-.2.6-.4 1.2-.7 1.7-.4.6-.8 1.1-1.2 1.5-.5.5-1 .9-1.5 1.2-.6.3-1.2.6-1.8.7-.7.2-1.3.3-2 .3s-1.4-.1-2-.3c-.7-.1-1.3-.4-1.8-.7-.6-.3-1.1-.7-1.6-1.2-.4-.4-.8-.9-1.1-1.5-.4-.5-.6-1.1-.8-1.7-.2-.7-.3-1.3-.3-2M240 389.3c.2.1.3.2.5.4.1.1.3.3.6.4.3.3.6.4 1 .6.3.1.6.1 1 .1.3 0 .6 0 .8-.1.3 0 .4-.1.6-.3.1-.1.2-.2.2-.4.1-.2.1-.3.1-.5s0-.4-.2-.6c-.2-.1-.3-.3-.6-.4-.2-.1-.4-.2-.7-.3-.2-.1-.4-.2-.6-.2-.8-.3-1.5-.6-2.1-.9-.6-.3-1-.7-1.4-1-.4-.4-.7-.9-.9-1.3-.2-.5-.3-1-.3-1.6 0-.6.1-1.1.4-1.6.2-.5.6-.9 1-1.3.5-.3 1-.6 1.7-.8.6-.2 1.3-.3 2.1-.3.6 0 1.2.1 1.7.2.6.2 1.1.4 1.6.7.3.1.5.2.7.4.2.1.3.2.5.4.1.1.3.2.4.3 0 .2.1.3.1.3 0 .1 0 .2-.1.3l-.2.2-1.5 1.6c-.1.1-.2.2-.3.2-.1 0-.2-.1-.3-.1 0-.1-.1-.1-.2-.2l-.1-.1c-.1-.1-.3-.2-.4-.3-.2-.1-.4-.2-.5-.3l-.6-.3c-.2 0-.4-.1-.6-.1-.3 0-.5 0-.7.1-.1 0-.3.1-.5.2-.1 0-.2.1-.3.3-.1.1-.1.2-.1.4s0 .4.1.5c.1.1.2.3.4.4.2.1.4.2.7.3.3.1.6.2 1 .3.6.2 1.3.5 1.9.7.6.3 1.1.6 1.5.9.4.4.7.8 1 1.2.2.5.3 1.1.3 1.8s-.1 1.3-.4 1.9c-.3.6-.7 1.1-1.2 1.5-.5.4-1.1.7-1.8.9-.7.3-1.5.4-2.3.4-.7 0-1.5-.1-2.2-.4-.7-.3-1.4-.6-2-1.1-.3-.2-.5-.4-.7-.6-.2-.1-.3-.3-.4-.4h-.1v-.1c-.2-.2-.2-.3-.2-.4 0-.1 0-.2.2-.4l1.7-1.6c.1-.1.2-.1.3-.1h.2c.1.1.2.1.2.2"/></g></svg>