<svg xmlns="http://www.w3.org/2000/svg" xmlns:xlink="http://www.w3.org/1999/xlink" xmlns:sketch="http://www.bohemiancoding.com/sketch/ns" width="380px" height="395px" viewBox="0 0 380 395" version="1.1"><!-- Generator: Sketch 3.2.2 (9983) - http://www.bohemiancoding.com/sketch --><title>Group</title><desc>Created with Sketch.</desc><defs/><g stroke="none" stroke-width="1" fill="none" fill-rule="evenodd" sketch:type="MSPage"><g sketch:type="MSLayerGroup" fill="#3F4348"><path d="M33.9915254 294.1 C32.6038079 294.2 31.5 294.4 30.6 294.6 C29.7139887 294.7 28.1 294.9 25.7 295 C24.0422599 298.4 22.2 302.3 20.2 306.7 C18.1892429 311.1 16.3 315.5 14.4 319.9 C12.6124746 324.2 11.1 328.3 9.9 332 C8.71262147 335.8 8.1 338.9 8.1 341.3 C8.11696045 343.9 9.2 345.3 11.3 345.3 C13.4628023 345.3 16.1 344 19.4 341.4 C22.5617401 338.8 25.4 334.6 27.9 328.8 L28.324113 328.6 C28.7017966 328.6 29.1 328.8 29.5 329.2 L29.8326893 329.6 C29.8326893 328.8 29.6 329.5 29.2 331.6 C28.7298531 333.6 27.8 336.1 26.4 339 C25.0479774 341.9 23.1 344.6 20.5 347.1 C17.9043616 349.7 14.4 350.9 10 350.9 C8.99318644 350.9 7.9 350.8 6.7 350.4 C5.50123164 350.1 4.4 349.5 3.5 348.6 C2.54450847 347.6 1.8 346.4 1.1 344.9 C0.498542373 343.4 0.2 341.4 0.2 338.8 C0.183446328 335.8 0.6 332.4 1.4 328.5 C2.22725424 324.7 3.2 320.8 4.4 316.8 C5.62640678 312.9 6.9 308.9 8.4 305 C9.84567232 301.1 11.3 297.5 12.7 294.3 C8.61766102 293.5 5.9 292.4 4.3 291 C2.82723164 289.5 2.1 288.3 2.1 287.3 C2.0740226 286.8 2.2 286.3 2.5 285.8 C5.22066667 287.5 8.9 288.4 13.6 288.4 C14.9800113 288.4 15.9 287.5 16.5 285.8 C17.0864068 284 17.5 282.8 17.7 282 L19.0697853 278 C19.4431525 276.9 19.8 275.8 20.1 274.6 C20.4229718 273.5 20.6 272.6 20.6 271.8 C20.8287119 271.9 21.5 272.2 22.7 272.6 C23.7897514 272.9 25 273.5 26.2 274.3 C27.5083164 275 28.6 276 29.6 277.1 C30.6549605 278.2 31.2 279.5 31.2 281.1 C31.1578192 281.7 31.1 282.5 31 283.5 C30.8448814 284.5 30.5 285.5 29.8 286.5 C38.3920791 284.9 45.4 283.8 50.8 283.2 C56.210113 282.7 61.3 282.4 66.1 282.4 C70.2469944 282.4 73.6 282.5 76.2 282.8 C78.7761695 283.2 80.6 283.6 81.6 284.1 C82.8400452 284.7 84 285.5 85 286.5 C85.8550395 287.4 86.6 288.5 87.3 289.6 C88.0348136 290.8 88.4 292.3 88.4 294.1 C88.3801243 294.6 88.3 295.6 88 297 C87.7499322 298.5 87.4 299.2 87.1 299.2 C86.6773107 299.2 85.9 298.9 84.7 298.3 C83.4939774 297.8 81.5 297.1 78.7 296.4 C75.8194463 295.6 72 294.9 67.1 294.4 C62.2832655 293.8 56 293.5 48.3 293.5 C44.0594915 293.5 39.3 293.7 34 294.1" sketch:type="MSShapeGroup"/><path d="M71.0032249 328.8 C71.6291006 329.2 71.9 329.5 71.9 329.6 C71.9463548 329.8 71.5 331.1 70.7 333.4 C69.8960723 335.6 68.7 338.1 67.1 340.6 C65.5581062 343.2 63.7 345.6 61.5 347.7 C59.2626599 349.9 56.8 350.9 54 350.9 C51.6118689 350.9 49.4 349.8 47.3 347.4 C45.2236203 345.1 44.2 341.7 44.2 337.1 C44.1855299 333.5 44.7 329.7 45.8 325.8 C46.8573718 321.9 48.1 318.3 49.5 314.9 C48.0853831 315.1 46.7 315.3 45.4 315.3 C44.0884113 315.4 42.7 315.5 41.3 315.6 L39.9338915 315.6 C39.489304 315.6 39 315.5 38.3 315.4 C36.5606373 318.3 35 321 33.5 323.5 C32.062965 326.1 30.8 328.2 29.8 330 C28.5710102 332.1 27.4 334.1 26.4 335.8 C26.3070667 335.8 26.2 335.8 26 335.6 C25.7696768 335.5 25.6 335.4 25.5 335.4 L25.1027955 335.1 C25.2344452 334.7 25.6 333.7 26.2 332.2 C26.872513 330.7 27.6 328.9 28.4 326.7 C29.2335751 324.6 30.1 322.3 31.1 320 C32.0046938 317.6 32.9 315.4 33.6 313.3 C31.4651458 312 30 310.3 29.3 308.3 C28.5084226 306.4 28.1 304.7 28.1 303.3 C28.130739 302 28.3 300.9 28.5 300.2 C28.7630893 299.5 29.4 299.2 30.4 299.2 C30.8975412 299.2 31.7 299.2 32.8 299.4 C33.8262079 299.5 34.9 299.7 36.1 299.9 C37.1951458 300.2 38.3 300.5 39.3 300.8 C40.2835186 301.1 40.9 301.4 41.2 301.6 C40.7885356 302.5 40.5 303.1 40.4 303.3 C40.2835186 303.4 40.1 303.7 39.8 303.9 C39.8367729 304.2 40.1 304.3 40.7 304.5 C41.2547051 304.6 41.9 304.7 42.8 304.8 C43.5833944 305 44.5 305.1 45.5 305.1 C46.5099028 305.2 47.5 305.2 48.3 305.2 L53.6254621 305.2 C53.4959706 305.5 53.7 305.2 54.1 304.5 C54.5383774 303.7 55.1 302.8 55.7 301.6 C56.3361514 300.5 56.9 299.3 57.5 298 C58.0691797 296.6 58.5 295.4 58.7 294.3 C58.8461288 294.3 59.4 294.6 60.2 295.1 C61.1165469 295.7 62.1 296.4 63.2 297.3 C64.2329763 298.2 65.2 299.2 66.1 300.2 C66.9652475 301.3 67.4 302.4 67.4 303.5 C67.4119932 304 67.4 304.5 67.3 304.9 C67.252287 305.4 67.2 305.9 67 306.5 C66.0221175 308.6 64.7 311 63.2 313.7 C61.589191 316.5 60 319.4 58.5 322.4 C57.0224565 325.4 55.7 328.5 54.7 331.6 C53.5974056 334.7 53.1 337.6 53.1 340.4 C53.0600158 341.7 53.2 342.9 53.5 343.8 C53.8520723 344.8 54.5 345.3 55.5 345.3 C57.274965 345.3 59.5 344 62.1 341.4 C64.7682079 338.8 67.3 334.6 69.9 328.8 L70.2500158 328.6 C70.4938915 328.6 70.7 328.7 71 328.8" sketch:type="MSShapeGroup"/><path d="M80.6350203 318.6 C79.372478 320 78.2 321.8 77.2 324.1 C79.8731785 324.7 82.3 324.7 84.4 324 C86.5463085 323.3 88.3 322.3 89.7 321 C91.0785119 319.7 92.1 318.3 92.7 316.7 C93.3532463 315.2 93.5 314.1 93.3 313.3 C93.282026 313 91.8 312.8 88.9 312.8 C87.9318678 312.8 86.6 313.3 85 314.4 C83.3306023 315.5 81.9 316.9 80.6 318.6 M113.676941 328.6 C114.186275 328.8 114.4 329 114.4 329.4 C114.436625 329.5 113.9 330.7 112.9 333.1 C111.913698 335.4 110.2 337.9 107.8 340.6 C105.428331 343.3 102.3 345.8 98.4 348.1 C94.4755062 350.4 89.7 351.5 84 351.5 C80.6350203 351.5 77.8 350.7 75.6 349 C73.4223424 347.4 71.7 345.5 70.5 343.2 C69.3304102 340.9 68.5 338.6 68 336.2 C67.474365 333.8 67.2 331.9 67.2 330.3 C67.2240147 326.6 68 322.9 69.4 319.3 C70.8389864 315.7 72.7 312.5 74.9 309.7 C77.0740034 306.8 79.6 304.6 82.3 302.9 C85.0938452 301.2 87.8 300.3 90.4 300.3 C94.102139 300.3 96.9 300.8 98.9 301.7 C100.805484 302.7 102.3 303.8 103.2 305 C104.142049 306.3 104.7 307.6 104.9 308.8 C105.08302 310.1 105.2 311 105.2 311.6 C105.177981 315.2 104.5 318.1 103.1 320.3 C101.720557 322.6 100 324.4 97.9 325.7 C95.833009 327 93.6 328 91.2 328.5 C88.8124102 329.1 86.6 329.4 84.6 329.4 C82.4586927 329.4 80.7 329.2 79.3 328.7 C77.9200147 328.3 76.8 327.8 76.1 327.1 C75.4639921 329.4 75.2 331.3 75.2 333 C75.1575288 334.5 75.3 336 75.7 337.4 C76.0941842 338.9 76.8 340.2 77.7 341.3 C78.6451672 342.4 79.9 343.3 81.5 344 C83.0543537 344.7 85 345.1 87.4 345.1 C91.4583537 345.1 95 344.3 98.2 342.7 C101.340715 341.1 104 339.3 106.1 337.3 C108.266354 335.3 109.9 333.5 110.9 331.8 C112.008659 330.1 112.5 329.1 112.5 328.8 L112.54389 328.6 L112.733811 328.6 L113.115811 328.4 C113.234512 328.4 113.3 328.5 113.4 328.5 C113.461122 328.6 113.5 328.6 113.7 328.6" sketch:type="MSShapeGroup"/><path d="M121.984254 318.6 C120.721712 320 119.6 321.8 118.6 324.1 C121.231045 324.7 123.6 324.7 125.8 324 C127.897701 323.3 129.7 322.3 131.1 321 C132.438537 319.7 133.4 318.3 134.1 316.7 C134.704638 315.2 134.9 314.1 134.6 313.3 C134.642051 313 133.2 312.8 130.3 312.8 C129.291893 312.8 128 313.3 126.3 314.4 C124.690627 315.5 123.2 316.9 122 318.6 M155.034808 328.6 C155.537667 328.8 155.8 329 155.8 329.4 C155.788017 329.5 155.3 330.7 154.3 333.1 C153.273723 335.4 151.6 337.9 149.2 340.6 C146.788356 343.3 143.6 345.8 139.7 348.1 C135.835531 350.4 131.1 351.5 125.4 351.5 C121.984254 351.5 119.2 350.7 117 349 C114.773734 347.4 113.1 345.5 111.9 343.2 C110.686119 340.9 109.8 338.6 109.3 336.2 C108.83439 333.8 108.6 331.9 108.6 330.3 C108.575407 326.6 109.3 322.9 110.7 319.3 C112.199011 315.7 114 312.5 116.2 309.7 C118.43187 306.8 120.9 304.6 123.7 302.9 C126.45387 301.2 129.2 300.3 131.8 300.3 C135.453531 300.3 138.3 300.8 140.2 301.7 C142.165508 302.7 143.6 303.8 144.6 305 C145.499915 306.3 146.1 307.6 146.3 308.8 C146.443045 310.1 146.5 311 146.5 311.6 C146.538006 315.2 145.8 318.1 144.5 320.3 C143.078424 322.6 141.3 324.4 139.3 325.7 C137.193034 327 135 328 132.6 328.5 C130.172435 329.1 128 329.4 126 329.4 C123.810085 329.4 122.1 329.2 120.7 328.7 C119.28004 328.3 118.2 327.8 117.5 327.1 C116.821859 329.4 116.5 331.3 116.5 333 C116.513237 334.5 116.7 336 117.1 337.4 C117.454209 338.9 118.1 340.2 119.1 341.3 C120.005192 342.4 121.3 343.3 122.8 344 C124.405746 344.7 126.4 345.1 128.8 345.1 C132.818379 345.1 136.4 344.3 139.6 342.7 C142.692107 341.1 145.3 339.3 147.5 337.3 C149.626379 335.3 151.2 333.5 152.3 331.8 C153.368684 330.1 153.9 329.1 153.9 328.8 L153.903915 328.6 L154.093836 328.6 L154.467203 328.4 C154.594537 328.4 154.7 328.5 154.8 328.5 C154.821147 328.6 154.9 328.6 155 328.6" sketch:type="MSShapeGroup"/><path d="M186.297947 314.1 C184.789371 316.5 183.1 319.3 181.1 322.4 C179.152173 325.6 177.3 328.7 175.5 331.9 C173.765325 335 172.2 337.9 170.7 340.5 C169.269811 343.2 168.4 345.2 168 346.6 C167.983529 346.5 167.9 346.6 167.6 347.1 C167.34902 347.5 167 348 166.5 348.6 C165.959145 349.1 165.4 349.7 164.7 350.2 C163.980082 350.7 163.2 350.9 162.3 350.9 C161.808941 350.9 161.1 350.9 160.3 350.8 C159.510467 350.8 158.7 350.4 158 349.9 C157.218467 349.3 156.6 348.4 156 347.2 C155.420693 346 155.1 344.2 155.1 341.9 C155.135811 339.1 155.5 335.8 156.3 332.1 C157.026388 328.4 158 324.6 159.1 320.5 C160.237777 316.5 161.5 312.5 163 308.4 C164.420354 304.4 165.8 300.6 167.1 297.1 C168.449698 293.6 169.6 290.5 170.7 287.9 C171.786263 285.2 172.6 283.3 173.1 282 L174.397676 278 C174.777518 276.9 175.1 275.8 175.4 274.6 C175.755179 273.5 175.9 272.6 175.9 271.8 C176.163077 271.9 176.9 272.2 178 272.7 C179.124116 273.1 180.3 273.7 181.6 274.4 C182.83189 275.2 184 276.1 185 277.2 C185.982851 278.3 186.5 279.5 186.5 281.1 C186.487868 282.7 186.2 284.2 185.5 285.6 C184.910229 286.8 183.9 288.8 182.6 291.4 C181.297416 294.1 179.8 297.1 178.2 300.5 C176.538602 303.9 174.9 307.5 173.2 311.4 C171.475484 315.2 169.9 319 168.4 322.7 C167.008026 326.4 165.8 329.9 164.9 333.1 C163.919653 336.3 163.4 339 163.4 341.1 C163.574342 341.1 163.6 341 163.6 340.9 C167.411608 335 171 329.7 174.4 325 C177.798986 320.2 180.8 316.2 183.3 312.8 C186.297947 308.8 189.1 305.2 191.6 302.2 C192.21571 301.2 192.8 300.3 193.4 299.4 C193.944421 298.5 194.6 296.8 195.4 294.3 C195.485371 294.3 196 294.6 196.9 295.1 C197.753631 295.7 198.7 296.4 199.8 297.3 C200.87006 298.2 201.8 299.2 202.7 300.3 C203.608806 301.5 204.1 302.5 204.1 303.5 L204.053393 305.1 C204.053393 305.7 203.9 306.2 203.7 306.5 C202.659201 308.6 201.4 311 199.8 313.7 C198.224116 316.5 196.7 319.4 195.2 322.4 C193.663856 325.4 192.4 328.5 191.3 331.6 C190.236647 334.7 189.7 337.6 189.7 340.4 C189.699258 341.7 189.9 342.9 190.2 343.8 C190.478365 344.8 191.2 345.3 192.3 345.3 C193.981111 345.3 196.1 344 198.9 341.4 C201.560681 338.8 204.1 334.6 206.5 328.8 L206.887099 328.6 C207.3878 328.6 207.8 328.8 208.2 329.2 L208.58128 329.6 C208.58128 329.8 208.2 331.1 207.4 333.4 C206.533156 335.6 205.4 338.1 203.9 340.6 C202.352738 343.2 200.5 345.6 198.3 347.7 C196.085348 349.9 193.6 350.9 190.8 350.9 C188.313698 350.9 186 349.8 183.9 347.4 C181.862862 345.1 180.8 341.7 180.8 337.1 C180.822614 333.5 181.4 329.6 182.5 325.5 C183.65632 321.4 184.9 317.6 186.3 314.1" sketch:type="MSShapeGroup"/><path d="M229.923426 337.5 C231.054319 336 232.1 334.2 232.9 332.2 C233.823279 330.2 234.5 328.1 234.9 326 C235.364228 323.9 235.5 321.7 235.3 319.6 C235.113878 317.4 234.6 315.4 233.7 313.5 C232.690228 313.5 231.7 314 230.9 315 C229.988172 316.1 229.2 317.3 228.5 318.7 C227.810556 320.2 227.2 321.7 226.8 323.4 C226.366725 325.1 226.1 326.8 226.1 328.3 C226.140115 329.6 226.4 331.4 226.9 333.5 C227.402658 335.7 228.4 337 229.9 337.5 M218.402997 346.2 C219.033189 346.2 220.1 345.9 221.7 345.4 C223.284827 344.8 224.6 343.7 225.8 342.2 C222.492771 340.2 220.3 337.5 219.3 333.9 C218.178545 330.4 217.6 326.9 217.6 323.5 C217.649788 322.8 217.7 322 217.7 321.2 C217.807336 320.4 217.9 319.6 218 318.8 C215.882228 321.1 214.1 323.7 212.6 326.6 C211.192477 329.5 210.5 332.6 210.5 336 C210.465166 339.4 211.2 341.9 212.5 343.5 C213.933381 345 215.9 346 218.4 346.2 M233.134816 301.5 C236.911652 301.6 239.7 303.2 241.5 306.4 C243.364646 309.5 244.3 313.1 244.3 317.1 C244.277562 321.7 243.3 326 241.3 330.1 C239.395731 334.2 237.4 337.5 235.4 340 C236.026793 340.1 236.6 340.2 237.1 340.3 C237.595799 340.3 238.1 340.3 238.6 340.3 C241.504285 340.3 244 339.9 246.1 338.9 C248.142884 338 249.4 337.5 249.8 337.5 L249.562974 337.5 C249.685991 337.6 249.9 337.8 250.1 337.9 C250.633437 338.4 250.9 338.9 250.9 339.4 L250.693867 339.2 C250.443516 339.2 250 339.5 249.3 340.2 C248.583155 340.8 247.6 341.5 246.4 342.3 C245.0912 343.1 243.6 343.9 241.9 344.5 C240.215844 345.1 238.3 345.4 236.2 345.4 C235.271426 345.4 234.4 345.4 233.4 345.3 C232.474409 345.1 231.5 344.9 230.5 344.5 C229.85868 345.4 228.4 346.7 226 348.4 C223.720782 350.1 221 350.9 217.8 350.9 C215.191607 350.9 213 350.4 211.1 349.2 C209.304059 348.1 207.8 346.6 206.7 344.9 C205.561754 343.1 204.7 341.2 204.1 339.2 C203.576217 337.2 203.3 335.2 203.3 333.4 C203.291336 328.4 204.1 324.1 205.8 320.2 C207.38111 316.4 209.2 313.1 211.3 310.3 C213.398149 307.6 215.4 305.4 217.5 303.8 C219.475618 302.2 220.9 301.3 221.6 301.1 C221.862579 301.1 222.2 301.2 222.6 301.5 C223.092748 301.9 223.8 302.8 224.8 304.5 C225.958827 303.8 227.1 303.1 228.3 302.4 C229.513369 301.6 231.1 301.3 233.1 301.5" sketch:type="MSShapeGroup"/><path d="M299.990859 328.8 C300.482927 329.2 300.7 329.5 300.7 329.6 C300.74191 329.8 300.3 331.1 299.5 333.3 C298.691627 335.5 297.5 337.9 296 340.5 C294.509051 343.2 292.7 345.6 290.4 347.7 C288.241661 349.9 285.8 350.9 283 350.9 C280.977186 350.9 279 350.1 277 348.4 C275.091797 346.7 273.8 343.6 273.2 339.2 C272.415638 340.5 271.5 341.8 270.4 343.2 C269.359638 344.6 268.2 345.8 266.9 347 C265.677763 348.1 264.3 349 262.8 349.8 C261.268576 350.5 259.7 350.9 258.1 350.9 C255.670226 350.9 253.4 349.8 251.3 347.4 C249.120113 345.1 248.1 341.7 248.1 337.1 C248.053966 334.1 248.5 330.9 249.3 327.6 C250.097774 324.3 251.1 321.1 252.2 318 C253.339379 314.9 254.5 312.1 255.6 309.7 C256.736373 307.2 257.6 305.3 258.2 303.9 C258.752124 302.9 259.6 301.4 260.7 299.4 C261.836181 297.4 262.6 295.7 263 294.5 C263.098723 294.5 263.6 294.7 264.5 295.3 C265.364825 295.9 266.3 296.6 267.3 297.4 C268.321548 298.2 269.2 299.2 270.1 300.2 C270.872531 301.3 271.3 302.4 271.3 303.5 C271.282588 303.9 271.2 304.6 271.1 305.7 C270.963175 306.8 270.6 307.6 270 308.3 C268.947424 310.4 267.7 312.8 266.2 315.4 C264.669887 318.1 263.2 320.8 261.8 323.6 C260.450621 326.5 259.3 329.3 258.3 332.2 C257.403254 335.1 256.9 337.8 256.9 340.4 C256.928452 342 257.1 343.3 257.6 344.3 C258.02913 345.3 258.9 345.8 260.3 345.8 C262.088689 345.8 264.2 344.8 266.7 342.8 C269.10713 340.8 271.4 337.3 273.5 332.2 C274.04939 328.6 274.9 324.9 276 321.3 C277.131288 317.6 278.3 314.4 279.5 311.6 C280.694463 308.7 281.8 306.4 282.8 304.7 C283.806576 302.9 284.4 302 284.7 302 C285.567661 302 286.6 302.2 287.8 302.7 C289.001345 303.1 290.2 303.7 291.5 304.3 C292.875299 304.9 294.3 305.7 295.8 306.5 C294.949322 308.6 293.7 311 292.1 313.7 C290.574667 316.5 289 319.4 287.5 322.5 C286.01009 325.6 284.7 328.7 283.6 331.8 C282.421017 334.8 281.9 337.8 281.9 340.5 C281.853412 341.9 282 343.1 282.3 343.9 C282.647627 344.8 283.4 345.3 284.5 345.3 C286.139582 345.3 288.3 344 291 341.4 C293.723469 338.8 296.3 334.6 298.9 328.8 L299.229017 328.6 C299.481525 328.6 299.7 328.7 300 328.8" sketch:type="MSShapeGroup"/><path d="M308.859733 344.9 C310.363993 344.9 311.8 344.6 313.3 344.1 C314.740807 343.6 316.1 342.9 317.4 342 C318.612603 341 319.6 339.8 320.4 338.5 C321.13553 337.1 321.5 335.6 321.5 333.9 C321.506739 332.4 321.2 330.7 320.7 328.6 C320.099598 326.6 319.4 324.5 318.7 322.3 C317.919824 320.1 317.2 318 316.5 315.9 C315.81127 313.8 315.3 312 314.9 310.3 C312.759586 313.5 310.5 316.7 308.1 320.1 C305.713089 323.4 303.6 326.4 301.7 329 C304.200197 328.4 306.2 328.1 307.8 328.1 C309.394965 328.1 310.1 328 310 327.9 C310.113643 327.9 310.2 328 310.4 328.1 C310.622976 328.3 310.7 328.7 310.7 329.2 C310.743835 329.6 310.1 329.9 308.8 330.2 C307.443959 330.4 306 330.8 304.3 331.3 C302.687304 331.8 301.2 332.4 299.9 333.2 C298.562999 333.9 297.9 335.1 297.9 336.6 C297.906908 337.3 298.2 338.2 298.8 339.1 C299.316208 340.1 300.1 340.9 301 341.8 C301.970784 342.6 303.1 343.3 304.5 343.9 C305.90301 344.6 307.3 344.9 308.9 344.9 M326.610863 302.4 C326.738197 303 326.8 303.7 326.7 304.3 C326.643236 304.9 326.5 305.4 326.4 305.6 C326.548276 308.6 327.2 312.4 328.5 316.9 C329.757507 321.5 330.7 326.6 331.3 332.4 C331.579021 335.6 331.1 338.3 329.9 340.7 C328.717259 343.1 327.1 345.1 325 346.8 C322.933304 348.4 320.6 349.7 317.9 350.5 C315.284671 351.4 312.7 351.9 310.2 351.9 C307.286411 351.9 304.8 351.4 302.7 350.5 C300.645654 349.5 298.9 348.3 297.5 346.9 C296.141507 345.4 295.1 343.8 294.4 342.1 C293.722174 340.4 293.4 338.8 293.4 337.3 C293.366072 335.4 293.8 333.8 294.8 332.3 C295.735767 330.9 297.1 330 298.8 329.8 C299.983089 327.9 301.2 325.7 302.6 323.2 C304.010276 320.6 305.4 318.1 306.9 315.5 C308.324502 312.9 309.7 310.5 310.9 308.1 C312.189824 305.7 313.3 303.7 314.3 302 C314.583259 301.5 314.9 300.8 315.2 299.9 C315.498332 299.1 315.8 298.2 316 297.4 C316.286072 296.6 316.6 295.8 317 295.2 C317.358694 294.6 317.7 294.3 318.1 294.3 C319.495304 295.2 320.8 296 322.1 296.9 C323.082219 297.7 324 298.5 324.9 299.5 C325.788592 300.4 326.4 301.4 326.6 302.4" sketch:type="MSShapeGroup"/><path d="M346.061138 318.6 C344.798595 320 343.7 321.8 342.7 324.1 C345.307929 324.7 347.7 324.7 349.8 324 C351.974584 323.3 353.7 322.3 355.1 321 C356.513262 319.7 357.5 318.3 358.1 316.7 C358.779364 315.2 359 314.1 358.7 313.3 C358.716776 313 357.3 312.8 354.4 312.8 C353.366618 312.8 352 313.3 350.4 314.4 C348.767511 315.5 347.3 316.9 346.1 318.6 M379.111692 328.6 C379.61455 328.8 379.9 329 379.9 329.4 C379.873533 329.5 379.4 330.7 378.4 333.1 C377.348449 335.4 375.7 337.9 373.3 340.6 C370.86524 343.3 367.7 345.8 363.8 348.1 C359.910256 350.4 355.1 351.5 349.5 351.5 C346.061138 351.5 343.3 350.7 341.1 349 C338.850618 347.4 337.2 345.5 336 343.2 C334.763002 340.9 333.9 338.6 333.4 336.2 C332.911273 333.8 332.7 331.9 332.7 330.3 C332.660923 326.6 333.4 322.9 334.8 319.3 C336.275895 315.7 338.1 312.5 340.3 309.7 C342.508754 306.8 345 304.6 347.8 302.9 C350.530754 301.2 353.2 300.3 355.9 300.3 C359.530415 300.3 362.3 300.8 364.3 301.7 C366.240234 302.7 367.7 303.8 368.6 305 C369.576799 306.3 370.1 307.6 370.3 308.8 C370.519929 310.1 370.6 311 370.6 311.6 C370.614889 315.2 369.9 318.1 368.5 320.3 C367.155307 322.6 365.4 324.4 363.3 325.7 C361.267759 327 359 328 356.6 328.5 C354.249319 329.1 352 329.4 350 329.4 C347.886968 329.4 346.1 329.2 344.7 328.7 C343.354765 328.3 342.3 327.8 341.5 327.1 C340.898742 329.4 340.6 331.3 340.6 333 C340.587963 334.5 340.8 336 341.2 337.4 C341.531093 338.9 342.2 340.2 343.1 341.3 C344.082076 342.4 345.3 343.3 346.9 344 C348.482629 344.7 350.5 345.1 352.9 345.1 C356.895262 345.1 360.5 344.3 363.6 342.7 C366.777624 341.1 369.4 339.3 371.6 337.3 C373.701104 335.3 375.3 333.5 376.4 331.8 C377.443409 330.1 378 329.1 378 328.8 L377.980799 328.6 L378.17072 328.6 L378.541929 328.5 C378.67142 328.5 378.8 328.5 378.8 328.5 C378.895872 328.6 379 328.6 379.1 328.6" sketch:type="MSShapeGroup"/><g sketch:type="MSShapeGroup"><path d="M173.8 105 C173.8 114.4 181.4 122 190.8 122 C200.2 122.1 207.9 114.6 208 105.2 C208.1 95.9 200.5 88.3 191 88.2 C181.6 88.2 173.9 95.7 173.8 105 "/><path d="M249.7 147.7 L239.3 135.4 L207.4 202.4 L198.1 202.3 L204.4 171.7 C204.5 159.9 201 150.3 189.1 150.2 C177.1 150.2 173.6 159.7 173.5 171.5 L179.3 202.2 L168.5 202 L139.1 134.8 L128.5 146.9 L115.1 135.3 L189.8 43.9 L263.3 136.3 L249.7 147.7 ZM189.2 0 C121.1 0 66 55.1 66 123.2 C66 191.2 121.1 246.3 189.2 246.3 C257.2 246.3 312.3 191.2 312.3 123.2 C312.3 55.1 257.2 0 189.2 0 L189.2 0 Z"/></g><g sketch:type="MSShapeGroup"><path d="M136.9 389.3 C137 389.4 137.1 389.5 137.3 389.7 C137.5 389.8 137.7 390 137.9 390.1 C138.2 390.4 138.6 390.5 138.9 390.7 C139.2 390.8 139.6 390.8 139.9 390.8 C140.3 390.8 140.5 390.8 140.8 390.7 C141 390.7 141.2 390.6 141.3 390.4 C141.4 390.3 141.5 390.2 141.6 390 C141.6 389.8 141.7 389.7 141.7 389.5 C141.7 389.3 141.6 389.1 141.4 388.9 C141.3 388.8 141.1 388.6 140.9 388.5 C140.6 388.4 140.4 388.3 140.2 388.2 C139.9 388.1 139.7 388 139.5 388 C138.8 387.7 138.1 387.4 137.5 387.1 C136.9 386.8 136.4 386.4 136 386.1 C135.6 385.7 135.3 385.2 135.1 384.8 C134.9 384.3 134.8 383.8 134.8 383.2 C134.8 382.6 134.9 382.1 135.2 381.6 C135.4 381.1 135.8 380.7 136.2 380.3 C136.7 380 137.3 379.7 137.9 379.5 C138.5 379.3 139.2 379.2 140 379.2 C140.6 379.2 141.2 379.3 141.8 379.4 C142.3 379.6 142.8 379.8 143.4 380.1 C143.6 380.2 143.8 380.3 144 380.5 C144.2 380.6 144.4 380.7 144.5 380.9 C144.7 381 144.8 381.1 144.9 381.2 C145 381.4 145 381.5 145 381.5 C145 381.6 145 381.7 145 381.8 C144.9 381.8 144.9 381.9 144.8 382 L143.3 383.6 C143.2 383.7 143 383.8 142.9 383.8 C142.8 383.8 142.8 383.7 142.7 383.7 C142.6 383.6 142.5 383.6 142.4 383.5 L142.3 383.4 C142.2 383.3 142.1 383.2 141.9 383.1 C141.7 383 141.6 382.9 141.4 382.8 C141.2 382.7 141 382.6 140.8 382.5 C140.6 382.5 140.4 382.4 140.2 382.4 C140 382.4 139.8 382.4 139.6 382.5 C139.4 382.5 139.2 382.6 139.1 382.7 C138.9 382.7 138.8 382.8 138.7 383 C138.7 383.1 138.6 383.2 138.6 383.4 C138.6 383.6 138.7 383.8 138.7 383.9 C138.8 384 139 384.2 139.2 384.3 C139.3 384.4 139.6 384.5 139.8 384.6 C140.1 384.7 140.4 384.8 140.8 384.9 C141.5 385.1 142.1 385.4 142.7 385.6 C143.3 385.9 143.8 386.2 144.2 386.5 C144.6 386.9 145 387.3 145.2 387.7 C145.5 388.2 145.6 388.8 145.6 389.5 C145.6 390.2 145.4 390.8 145.1 391.4 C144.9 392 144.4 392.5 143.9 392.9 C143.4 393.3 142.8 393.6 142.1 393.8 C141.4 394.1 140.7 394.2 139.9 394.2 C139.1 394.2 138.4 394.1 137.7 393.8 C136.9 393.5 136.3 393.2 135.6 392.7 C135.4 392.5 135.1 392.3 135 392.1 C134.8 392 134.6 391.8 134.5 391.7 L134.5 391.7 C134.5 391.7 134.5 391.7 134.5 391.7 L134.5 391.6 C134.5 391.6 134.4 391.6 134.4 391.6 C134.4 391.6 134.4 391.6 134.4 391.6 C134.3 391.4 134.2 391.3 134.2 391.2 C134.2 391.1 134.3 391 134.4 390.8 L136.1 389.2 C136.3 389.1 136.4 389.1 136.5 389.1 C136.5 389.1 136.6 389.1 136.6 389.1 C136.7 389.2 136.8 389.2 136.9 389.3 "/><path d="M151.1 380 C151.1 379.8 151.1 379.7 151.2 379.6 C151.3 379.6 151.4 379.5 151.5 379.5 L162.1 379.5 C162.2 379.5 162.3 379.6 162.4 379.6 C162.5 379.7 162.6 379.8 162.6 380 L162.6 382.4 C162.6 382.5 162.5 382.6 162.5 382.7 C162.4 382.8 162.3 382.9 162.1 382.9 L158.7 382.9 L158.7 393.5 C158.7 393.7 158.7 393.8 158.6 393.9 C158.5 393.9 158.4 394 158.3 394 L155.4 394 C155.3 394 155.2 394 155.1 393.9 C155 393.8 154.9 393.7 154.9 393.5 L154.9 382.9 L151.5 382.9 C151.4 382.9 151.3 382.8 151.2 382.7 C151.1 382.7 151.1 382.5 151.1 382.4 L151.1 380 Z"/><path d="M172.6 388.2 C172.6 388.7 172.7 389.1 172.8 389.5 C173 389.8 173.2 390.1 173.4 390.3 C173.6 390.5 173.8 390.6 174.1 390.7 C174.4 390.8 174.7 390.9 175.1 390.9 C175.4 390.9 175.7 390.8 176 390.7 C176.3 390.6 176.5 390.4 176.8 390.2 C177 390 177.1 389.7 177.3 389.4 C177.4 389 177.5 388.7 177.5 388.2 L177.5 380 C177.5 379.8 177.5 379.7 177.6 379.7 C177.7 379.6 177.8 379.5 177.9 379.5 L180.8 379.5 C180.9 379.5 181.1 379.6 181.1 379.7 C181.2 379.8 181.3 379.8 181.3 380 L181.3 388.2 C181.3 389.3 181.1 390.3 180.8 391 C180.4 391.8 180 392.4 179.4 392.9 C178.8 393.4 178.2 393.7 177.4 393.9 C176.7 394.1 175.9 394.2 175.1 394.2 C174.2 394.2 173.4 394.1 172.7 393.9 C171.9 393.7 171.3 393.3 170.7 392.9 C170.1 392.4 169.7 391.8 169.3 391 C169 390.2 168.8 389.3 168.8 388.2 L168.8 380 C168.8 379.8 168.9 379.8 169 379.7 C169 379.6 169.1 379.5 169.2 379.5 L172.2 379.5 C172.3 379.5 172.4 379.6 172.5 379.6 C172.6 379.7 172.6 379.8 172.6 380 L172.6 388.2 Z"/><path d="M191.7 383 L191.7 390.5 L192.5 390.5 C192.7 390.5 192.8 390.5 193 390.5 C193.1 390.5 193.3 390.5 193.4 390.5 C193.9 390.4 194.3 390.3 194.8 390.1 C195.2 389.9 195.6 389.6 195.9 389.3 C196.2 389 196.5 388.6 196.6 388.2 C196.8 387.8 196.9 387.3 196.9 386.8 C196.9 386.2 196.8 385.7 196.6 385.3 C196.4 384.8 196.1 384.4 195.8 384.1 C195.4 383.7 195 383.5 194.5 383.3 C194 383.1 193.5 383 193 383 L191.7 383 ZM200.7 386.8 C200.7 387.5 200.6 388.1 200.4 388.7 C200.2 389.4 200 389.9 199.7 390.5 C199.3 391 199 391.5 198.5 391.9 C198 392.4 197.5 392.7 197 393 C196.4 393.3 195.8 393.6 195.2 393.7 C194.5 393.9 193.9 394 193.2 394 L188.3 394 C188.2 394 188.1 394 188 393.9 C187.9 393.9 187.9 393.8 187.9 393.6 L187.9 380 C187.9 379.8 187.9 379.7 188 379.6 C188.1 379.6 188.2 379.5 188.3 379.5 L193.2 379.5 C193.9 379.5 194.5 379.6 195.2 379.8 C195.8 379.9 196.4 380.2 197 380.5 C197.5 380.8 198 381.2 198.5 381.6 C198.9 382 199.3 382.5 199.7 383.1 C200 383.6 200.2 384.2 200.4 384.8 C200.6 385.4 200.7 386.1 200.7 386.8 L200.7 386.8 Z"/><path d="M207.2 380 C207.2 379.8 207.3 379.7 207.3 379.7 C207.4 379.6 207.5 379.5 207.7 379.5 L210.5 379.5 C210.6 379.5 210.7 379.6 210.9 379.6 C211 379.7 211 379.8 211 380 L211 393.6 C211 393.9 210.9 394 210.5 394 L207.7 394 C207.4 394 207.2 393.9 207.2 393.6 L207.2 380 Z"/><path d="M221.2 386.8 C221.2 387.3 221.3 387.8 221.5 388.3 C221.7 388.7 222 389.1 222.3 389.5 C222.6 389.8 223 390.1 223.5 390.3 C223.9 390.5 224.4 390.6 225 390.6 C225.5 390.6 226 390.5 226.5 390.3 C226.9 390.1 227.3 389.8 227.6 389.5 C228 389.1 228.2 388.7 228.4 388.3 C228.6 387.8 228.7 387.3 228.7 386.8 C228.7 386.2 228.6 385.7 228.4 385.3 C228.2 384.8 228 384.4 227.6 384 C227.3 383.7 226.9 383.4 226.5 383.2 C226 383 225.5 382.9 225 382.9 C224.4 382.9 223.9 383 223.5 383.2 C223 383.4 222.6 383.7 222.3 384 C222 384.4 221.7 384.8 221.5 385.3 C221.3 385.7 221.2 386.2 221.2 386.8 M217.4 386.8 C217.4 386.1 217.5 385.4 217.7 384.8 C217.9 384.2 218.1 383.6 218.5 383 C218.8 382.5 219.2 382 219.6 381.5 C220.1 381 220.6 380.7 221.2 380.3 C221.7 380 222.3 379.8 223 379.6 C223.6 379.4 224.3 379.3 225 379.3 C225.7 379.3 226.3 379.4 227 379.6 C227.6 379.8 228.2 380 228.8 380.3 C229.3 380.7 229.8 381 230.3 381.5 C230.7 382 231.1 382.5 231.5 383 C231.8 383.6 232 384.2 232.2 384.8 C232.4 385.4 232.5 386.1 232.5 386.8 C232.5 387.5 232.4 388.1 232.2 388.8 C232 389.4 231.8 390 231.5 390.5 C231.1 391.1 230.7 391.6 230.3 392 C229.8 392.5 229.3 392.9 228.8 393.2 C228.2 393.5 227.6 393.8 227 393.9 C226.3 394.1 225.7 394.2 225 394.2 C224.3 394.2 223.6 394.1 223 393.9 C222.3 393.8 221.7 393.5 221.2 393.2 C220.6 392.9 220.1 392.5 219.6 392 C219.2 391.6 218.8 391.1 218.5 390.5 C218.1 390 217.9 389.4 217.7 388.8 C217.5 388.1 217.4 387.5 217.4 386.8 "/><path d="M240 389.3 C240.2 389.4 240.3 389.5 240.5 389.7 C240.6 389.8 240.8 390 241.1 390.1 C241.4 390.4 241.7 390.5 242.1 390.7 C242.4 390.8 242.7 390.8 243.1 390.8 C243.4 390.8 243.7 390.8 243.9 390.7 C244.2 390.7 244.3 390.6 244.5 390.4 C244.6 390.3 244.7 390.2 244.7 390 C244.8 389.8 244.8 389.7 244.8 389.5 C244.8 389.3 244.8 389.1 244.6 388.9 C244.4 388.8 244.3 388.6 244 388.5 C243.8 388.4 243.6 388.3 243.3 388.2 C243.1 388.1 242.9 388 242.7 388 C241.9 387.7 241.2 387.4 240.6 387.1 C240 386.8 239.6 386.4 239.2 386.1 C238.8 385.7 238.5 385.2 238.3 384.8 C238.1 384.3 238 383.8 238 383.2 C238 382.6 238.1 382.1 238.4 381.6 C238.6 381.1 239 380.7 239.4 380.3 C239.9 380 240.4 379.7 241.1 379.5 C241.7 379.3 242.4 379.2 243.2 379.2 C243.8 379.2 244.4 379.3 244.9 379.4 C245.5 379.6 246 379.8 246.5 380.1 C246.8 380.2 247 380.3 247.2 380.5 C247.4 380.6 247.5 380.7 247.7 380.9 C247.8 381 248 381.1 248.1 381.2 C248.1 381.4 248.2 381.5 248.2 381.5 C248.2 381.6 248.2 381.7 248.1 381.8 C248.1 381.8 248 381.9 247.9 382 L246.4 383.6 C246.3 383.7 246.2 383.8 246.1 383.8 C246 383.8 245.9 383.7 245.8 383.7 C245.8 383.6 245.7 383.6 245.6 383.5 L245.5 383.4 C245.4 383.3 245.2 383.2 245.1 383.1 C244.9 383 244.7 382.9 244.6 382.8 C244.4 382.7 244.2 382.6 244 382.5 C243.8 382.5 243.6 382.4 243.4 382.4 C243.1 382.4 242.9 382.4 242.7 382.5 C242.6 382.5 242.4 382.6 242.2 382.7 C242.1 382.7 242 382.8 241.9 383 C241.8 383.1 241.8 383.2 241.8 383.4 C241.8 383.6 241.8 383.8 241.9 383.9 C242 384 242.1 384.2 242.3 384.3 C242.5 384.4 242.7 384.5 243 384.6 C243.3 384.7 243.6 384.8 244 384.9 C244.6 385.1 245.3 385.4 245.9 385.6 C246.5 385.9 247 386.2 247.4 386.5 C247.8 386.9 248.1 387.3 248.4 387.7 C248.6 388.2 248.7 388.8 248.7 389.5 C248.7 390.2 248.6 390.8 248.3 391.4 C248 392 247.6 392.5 247.1 392.9 C246.6 393.3 246 393.6 245.3 393.8 C244.6 394.1 243.8 394.2 243 394.2 C242.3 394.2 241.5 394.1 240.8 393.8 C240.1 393.5 239.4 393.2 238.8 392.7 C238.5 392.5 238.3 392.3 238.1 392.1 C237.9 392 237.8 391.8 237.7 391.7 L237.7 391.7 C237.7 391.7 237.7 391.7 237.6 391.7 C237.6 391.7 237.6 391.6 237.6 391.6 C237.6 391.6 237.6 391.6 237.6 391.6 C237.6 391.6 237.6 391.6 237.6 391.6 C237.4 391.4 237.4 391.3 237.4 391.2 C237.4 391.1 237.4 391 237.6 390.8 L239.3 389.2 C239.4 389.1 239.5 389.1 239.6 389.1 C239.7 389.1 239.7 389.1 239.8 389.1 C239.9 389.2 240 389.2 240 389.3 "/></g></g></g></svg>